<svg xmlns="http://www.w3.org/2000/svg" viewBox="0 0 64 64" role="img" aria-label="A ring of light, printed as dots">
  <!-- The landing poster in miniature: Doré's ring of light, dithered. -->
  <rect width="64" height="64" rx="12" fill="#0b0b0e"/>
  <rect x="6" y="38" width="22" height="14" fill="#ff3d7f"/>
  <rect x="16.5" y="8.5" width="3" height="3" fill="#5b74ff"/>
  <rect x="20.5" y="8.5" width="3" height="3" fill="#5b74ff"/>
  <rect x="24.5" y="8.5" width="3" height="3" fill="#e8e3d6"/>
  <rect x="28.5" y="8.5" width="3" height="3" fill="#e8e3d6"/>
  <rect x="32.5" y="8.5" width="3" height="3" fill="#e8e3d6"/>
  <rect x="36.5" y="8.5" width="3" height="3" fill="#e8e3d6"/>
  <rect x="40.5" y="8.5" width="3" height="3" fill="#5b74ff"/>
  <rect x="12.5" y="12.5" width="3" height="3" fill="#5b74ff"/>
  <rect x="16.5" y="12.5" width="3" height="3" fill="#e8e3d6"/>
  <rect x="20.5" y="12.5" width="3" height="3" fill="#e8e3d6"/>
  <rect x="24.5" y="12.5" width="3" height="3" fill="#e8e3d6"/>
  <rect x="28.5" y="12.5" width="3" height="3" fill="#e8e3d6"/>
  <rect x="32.5" y="12.5" width="3" height="3" fill="#e8e3d6"/>
  <rect x="36.5" y="12.5" width="3" height="3" fill="#e8e3d6"/>
  <rect x="40.5" y="12.5" width="3" height="3" fill="#e8e3d6"/>
  <rect x="44.5" y="12.5" width="3" height="3" fill="#e8e3d6"/>
  <rect x="8.5" y="16.5" width="3" height="3" fill="#5b74ff"/>
  <rect x="12.5" y="16.5" width="3" height="3" fill="#e8e3d6"/>
  <rect x="16.5" y="16.5" width="3" height="3" fill="#e8e3d6"/>
  <rect x="20.5" y="16.5" width="3" height="3" fill="#5b74ff"/>
  <rect x="24.5" y="16.5" width="3" height="3" fill="#5b74ff"/>
  <rect x="32.5" y="16.5" width="3" height="3" fill="#5b74ff"/>
  <rect x="40.5" y="16.5" width="3" height="3" fill="#5b74ff"/>
  <rect x="44.5" y="16.5" width="3" height="3" fill="#e8e3d6"/>
  <rect x="48.5" y="16.5" width="3" height="3" fill="#e8e3d6"/>
  <rect x="12.5" y="20.5" width="3" height="3" fill="#e8e3d6"/>
  <rect x="44.5" y="20.5" width="3" height="3" fill="#5b74ff"/>
  <rect x="48.5" y="20.5" width="3" height="3" fill="#e8e3d6"/>
  <rect x="52.5" y="20.5" width="3" height="3" fill="#5b74ff"/>
  <rect x="8.5" y="24.5" width="3" height="3" fill="#e8e3d6"/>
  <rect x="12.5" y="24.5" width="3" height="3" fill="#e8e3d6"/>
  <rect x="16.5" y="24.5" width="3" height="3" fill="#5b74ff"/>
  <rect x="48.5" y="24.5" width="3" height="3" fill="#e8e3d6"/>
  <rect x="52.5" y="24.5" width="3" height="3" fill="#e8e3d6"/>
  <rect x="56.5" y="24.5" width="3" height="3" fill="#5b74ff"/>
  <rect x="8.5" y="28.5" width="3" height="3" fill="#e8e3d6"/>
  <rect x="12.5" y="28.5" width="3" height="3" fill="#e8e3d6"/>
  <rect x="28.5" y="28.5" width="3" height="3" fill="#f2b35e"/>
  <rect x="48.5" y="28.5" width="3" height="3" fill="#e8e3d6"/>
  <rect x="52.5" y="28.5" width="3" height="3" fill="#e8e3d6"/>
  <rect x="8.5" y="32.5" width="3" height="3" fill="#e8e3d6"/>
  <rect x="12.5" y="32.5" width="3" height="3" fill="#e8e3d6"/>
  <rect x="16.5" y="32.5" width="3" height="3" fill="#5b74ff"/>
  <rect x="28.5" y="32.5" width="3" height="3" fill="#f2b35e"/>
  <rect x="32.5" y="32.5" width="3" height="3" fill="#f2b35e"/>
  <rect x="48.5" y="32.5" width="3" height="3" fill="#e8e3d6"/>
  <rect x="52.5" y="32.5" width="3" height="3" fill="#e8e3d6"/>
  <rect x="56.5" y="32.5" width="3" height="3" fill="#5b74ff"/>
  <rect x="8.5" y="36.5" width="3" height="3" fill="#e8e3d6"/>
  <rect x="12.5" y="36.5" width="3" height="3" fill="#e8e3d6"/>
  <rect x="48.5" y="36.5" width="3" height="3" fill="#e8e3d6"/>
  <rect x="52.5" y="36.5" width="3" height="3" fill="#e8e3d6"/>
  <rect x="8.5" y="40.5" width="3" height="3" fill="#5b74ff"/>
  <rect x="12.5" y="40.5" width="3" height="3" fill="#e8e3d6"/>
  <rect x="16.5" y="40.5" width="3" height="3" fill="#5b74ff"/>
  <rect x="44.5" y="40.5" width="3" height="3" fill="#5b74ff"/>
  <rect x="48.5" y="40.5" width="3" height="3" fill="#e8e3d6"/>
  <rect x="52.5" y="40.5" width="3" height="3" fill="#5b74ff"/>
  <rect x="12.5" y="44.5" width="3" height="3" fill="#e8e3d6"/>
  <rect x="16.5" y="44.5" width="3" height="3" fill="#e8e3d6"/>
  <rect x="20.5" y="44.5" width="3" height="3" fill="#5b74ff"/>
  <rect x="44.5" y="44.5" width="3" height="3" fill="#e8e3d6"/>
  <rect x="48.5" y="44.5" width="3" height="3" fill="#e8e3d6"/>
  <rect x="16.5" y="48.5" width="3" height="3" fill="#e8e3d6"/>
  <rect x="20.5" y="48.5" width="3" height="3" fill="#e8e3d6"/>
  <rect x="24.5" y="48.5" width="3" height="3" fill="#e8e3d6"/>
  <rect x="28.5" y="48.5" width="3" height="3" fill="#e8e3d6"/>
  <rect x="32.5" y="48.5" width="3" height="3" fill="#e8e3d6"/>
  <rect x="36.5" y="48.5" width="3" height="3" fill="#e8e3d6"/>
  <rect x="40.5" y="48.5" width="3" height="3" fill="#e8e3d6"/>
  <rect x="44.5" y="48.5" width="3" height="3" fill="#e8e3d6"/>
  <rect x="48.5" y="48.5" width="3" height="3" fill="#5b74ff"/>
  <rect x="20.5" y="52.5" width="3" height="3" fill="#5b74ff"/>
  <rect x="24.5" y="52.5" width="3" height="3" fill="#e8e3d6"/>
  <rect x="28.5" y="52.5" width="3" height="3" fill="#e8e3d6"/>
  <rect x="32.5" y="52.5" width="3" height="3" fill="#e8e3d6"/>
  <rect x="36.5" y="52.5" width="3" height="3" fill="#e8e3d6"/>
  <rect x="24.5" y="56.5" width="3" height="3" fill="#5b74ff"/>
  <rect x="32.5" y="56.5" width="3" height="3" fill="#5b74ff"/>
</svg>
